name analog
datacolumns 19
datarows 33
range 0.3330000000000001 0.3490000000000001
endheader
time	ground_force_vx	ground_force_vy	ground_force_vz	ground_force_px	ground_force_py	ground_force_pz	l_ground_force_vx	l_ground_force_vy	l_ground_force_vz	l_ground_force_px	l_ground_force_py	l_ground_force_pz	ground_torque_x	ground_torque_y	ground_torque_z	l_ground_torque_x	l_ground_torque_y	l_ground_torque_z
0.3330000000000001	-0.0	-0.0	-0.0	-7.623637676239014	-14.459479331970217	-834.13037109375	-0.0	-0.0	-0.0	-0.0	-0.0	-0.0	-0.0	-0.0	-0.0	-0.0	-0.0	-0.0
0.3335000000000001	-0.0	-0.0	-0.0	-6.838882923126221	-14.904976844787598	-831.8588256835938	-0.0	-0.0	-0.0	-0.0	-0.0	-0.0	-0.0	-0.0	-0.0	-0.0	-0.0	-0.0
0.3340000000000001	-0.0	-0.0	-0.0	-5.6804728507995605	-14.86472511291504	-834.6790161132812	-0.0	-0.0	-0.0	-0.0	-0.0	-0.0	-0.0	-0.0	-0.0	-0.0	-0.0	-0.0
0.3345000000000001	-0.0	-0.0	-0.0	-4.857247829437256	-15.311026573181152	-834.7200317382812	-0.0	-0.0	-0.0	-0.0	-0.0	-0.0	-0.0	-0.0	-0.0	-0.0	-0.0	-0.0
0.3350000000000001	-0.0	-0.0	-0.0	-4.27221155166626	-15.785964965820312	-835.3887939453125	-0.0	-0.0	-0.0	-0.0	-0.0	-0.0	-0.0	-0.0	-0.0	-0.0	-0.0	-0.0
0.3355000000000001	-0.0	-0.0	-0.0	-4.054544925689697	-15.300211906433104	-833.1903686523438	-0.0	-0.0	-0.0	-0.0	-0.0	-0.0	-0.0	-0.0	-0.0	-0.0	-0.0	-0.0
0.3360000000000001	-0.0	-0.0	-0.0	-3.955968141555786	-15.578335762023926	-830.8721923828125	-0.0	-0.0	-0.0	-0.0	-0.0	-0.0	-0.0	-0.0	-0.0	-0.0	-0.0	-0.0
0.3365000000000001	-0.0	-0.0	-0.0	-3.112691164016724	-15.438895225524902	-831.4239501953125	-0.0	-0.0	-0.0	-0.0	-0.0	-0.0	-0.0	-0.0	-0.0	-0.0	-0.0	-0.0
0.3370000000000001	-0.0	-0.0	-0.0	-2.6570920944213867	-15.667744636535645	-831.7767944335938	-0.0	-0.0	-0.0	-0.0	-0.0	-0.0	-0.0	-0.0	-0.0	-0.0	-0.0	-0.0
0.3375000000000001	-0.0	-0.0	-0.0	-2.3800811767578125	-14.70651626586914	-830.4527587890625	-0.0	-0.0	-0.0	-0.0	-0.0	-0.0	-0.0	-0.0	-0.0	-0.0	-0.0	-0.0
0.3380000000000001	-0.0	-0.0	-0.0	-2.351921558380127	-13.735533714294434	-827.5006103515625	-0.0	-0.0	-0.0	-0.0	-0.0	-0.0	-0.0	-0.0	-0.0	-0.0	-0.0	-0.0
0.3385000000000001	-0.0	-0.0	-0.0	-2.864131450653076	-11.685469627380373	-826.199462890625	-0.0	-0.0	-0.0	-0.0	-0.0	-0.0	-0.0	-0.0	-0.0	-0.0	-0.0	-0.0
0.3390000000000001	-0.0	-0.0	-0.0	-2.774843692779541	-9.83227252960205	-823.1148681640625	-0.0	-0.0	-0.0	-0.0	-0.0	-0.0	-0.0	-0.0	-0.0	-0.0	-0.0	-0.0
0.3395000000000001	-0.0	-0.0	-0.0	-2.605610609054565	-8.547273635864258	-818.671142578125	-0.0	-0.0	-0.0	-0.0	-0.0	-0.0	-0.0	-0.0	-0.0	-0.0	-0.0	-0.0
0.3400000000000001	-0.0	-0.0	-0.0	-2.96229887008667	-7.388655662536621	-814.2613525390625	-0.0	-0.0	-0.0	-0.0	-0.0	-0.0	-0.0	-0.0	-0.0	-0.0	-0.0	-0.0
0.3405000000000001	-0.0	-0.0	-0.0	-3.096870422363281	-6.5865559577941895	-811.5714721679688	-0.0	-0.0	-0.0	-0.0	-0.0	-0.0	-0.0	-0.0	-0.0	-0.0	-0.0	-0.0
0.3410000000000001	-0.0	-0.0	-0.0	-3.925262451171875	-5.195490837097168	-808.8536376953125	-0.0	-0.0	-0.0	-0.0	-0.0	-0.0	-0.0	-0.0	-0.0	-0.0	-0.0	-0.0
0.3415000000000001	-0.0	-0.0	-0.0	-4.166014671325684	-5.276210308074951	-804.826171875	-0.0	-0.0	-0.0	-0.0	-0.0	-0.0	-0.0	-0.0	-0.0	-0.0	-0.0	-0.0
0.3420000000000001	-0.0	-0.0	-0.0	-3.943034648895264	-4.492382049560547	-800.2002563476562	-0.0	-0.0	-0.0	-0.0	-0.0	-0.0	-0.0	-0.0	-0.0	-0.0	-0.0	-0.0
0.3425000000000001	-0.0	-0.0	-0.0	-2.836092472076416	-3.413393974304199	-797.2318115234375	-0.0	-0.0	-0.0	-0.0	-0.0	-0.0	-0.0	-0.0	-0.0	-0.0	-0.0	-0.0
0.3430000000000001	-0.0	-0.0	-0.0	-3.1485981941223145	-1.2478256225585938	-795.541259765625	-0.0	-0.0	-0.0	-0.0	-0.0	-0.0	-0.0	-0.0	-0.0	-0.0	-0.0	-0.0
0.3435000000000001	-0.0	-0.0	-0.0	-3.96865463256836	0.2784858644008636	-790.200927734375	-0.0	-0.0	-0.0	-0.0	-0.0	-0.0	-0.0	-0.0	-0.0	-0.0	-0.0	-0.0
0.3440000000000001	-0.0	-0.0	-0.0	-3.933863878250122	-0.3769028186798095	-789.3231201171875	-0.0	-0.0	-0.0	-0.0	-0.0	-0.0	-0.0	-0.0	-0.0	-0.0	-0.0	-0.0
0.3445000000000001	-0.0	-0.0	-0.0	-4.388368129730225	-0.8657470345497131	-786.8511352539062	-0.0	-0.0	-0.0	-0.0	-0.0	-0.0	-0.0	-0.0	-0.0	-0.0	-0.0	-0.0
0.3450000000000001	-0.0	-0.0	-0.0	-5.637185573577881	-1.90555477142334	-783.0333862304688	-0.0	-0.0	-0.0	-0.0	-0.0	-0.0	-0.0	-0.0	-0.0	-0.0	-0.0	-0.0
0.3455000000000001	-0.0	-0.0	-0.0	-6.398003578186035	-2.440028190612793	-780.1744384765625	-0.0	-0.0	-0.0	-0.0	-0.0	-0.0	-0.0	-0.0	-0.0	-0.0	-0.0	-0.0
0.3460000000000001	-0.0	-0.0	-0.0	-6.267459869384766	-3.2003910541534424	-780.4948120117188	-0.0	-0.0	-0.0	-0.0	-0.0	-0.0	-0.0	-0.0	-0.0	-0.0	-0.0	-0.0
0.3465000000000001	-0.0	-0.0	-0.0	-5.896139144897461	-3.3143012523651123	-779.9844970703125	-0.0	-0.0	-0.0	-0.0	-0.0	-0.0	-0.0	-0.0	-0.0	-0.0	-0.0	-0.0
0.3470000000000001	-0.0	-0.0	-0.0	-6.163693428039551	-3.3869552612304688	-780.0800170898438	-0.0	-0.0	-0.0	-0.0	-0.0	-0.0	-0.0	-0.0	-0.0	-0.0	-0.0	-0.0
0.3475000000000001	-0.0	-0.0	-0.0	-6.187936782836914	-4.586206912994385	-781.8121337890625	-0.0	-0.0	-0.0	-0.0	-0.0	-0.0	-0.0	-0.0	-0.0	-0.0	-0.0	-0.0
0.3480000000000001	-0.0	-0.0	-0.0	-6.561448574066162	-4.318352699279785	-781.8133544921875	-0.0	-0.0	-0.0	-0.0	-0.0	-0.0	-0.0	-0.0	-0.0	-0.0	-0.0	-0.0
0.3485000000000001	-0.0	-0.0	-0.0	-6.373702526092529	-5.120153427124023	-786.2484130859375	-0.0	-0.0	-0.0	-0.0	-0.0	-0.0	-0.0	-0.0	-0.0	-0.0	-0.0	-0.0
0.3490000000000001	-0.0	-0.0	-0.0	-5.992877006530762	-5.82499361038208	-788.0790405273438	-0.0	-0.0	-0.0	-0.0	-0.0	-0.0	-0.0	-0.0	-0.0	-0.0	-0.0	-0.0
